<svg width="257" height="122" viewBox="0 0 257 122" fill="none" xmlns="http://www.w3.org/2000/svg">
<g opacity="0.3">
<rect x="255.899" y="0.09375" width="120.655" height="255.899" transform="rotate(90 255.899 0.09375)" fill="#140359"/>
<rect x="255.899" y="0.09375" width="120.655" height="255.899" transform="rotate(90 255.899 0.09375)" fill="url(#paint0_radial_1670_3240)"/>
<rect x="255.899" y="0.09375" width="120.655" height="255.899" transform="rotate(90 255.899 0.09375)" fill="url(#paint1_radial_1670_3240)"/>
<rect x="255.899" y="0.09375" width="120.655" height="255.899" transform="rotate(90 255.899 0.09375)" fill="url(#paint2_radial_1670_3240)"/>
</g>
<rect opacity="0.2" x="255.399" y="1.24219" width="119.331" height="254.899" transform="rotate(90 255.399 1.24219)" stroke="white"/>
<path opacity="0.05" d="M256 0.677734L256 121.187M239.012 0.677734L239.012 121.187M222.025 0.677733L222.025 121.187M205.037 0.677732L205.037 121.187M188.05 0.677731L188.05 121.187M171.062 0.67773L171.062 121.187M154.075 0.677729L154.075 121.187M137.087 0.677728L137.087 121.187M120.1 0.677728L120.1 121.187M103.112 0.677727L103.112 121.187M86.1246 0.677726L86.1246 121.187M69.1371 0.677725L69.1371 121.187M52.1496 0.677724L52.1496 121.187M35.162 0.677723L35.162 121.187M18.1745 0.677723L18.1745 121.187M1.18695 0.677722L1.18694 121.187" stroke="white"/>
<path opacity="0.05" d="M256 1.06837L1.18694 1.06835M256 11.0783L1.18694 11.0783M256 21.0883L1.18694 21.0882M256 31.0982L1.18694 31.0982M256 41.1081L1.18694 41.1081M256 51.1181L1.18694 51.1181M256 61.128L1.18694 61.128M256 71.138L1.18694 71.138M256 81.1479L1.18694 81.1479M256 91.1579L1.18694 91.1578M256 101.168L1.18694 101.168M256 111.178L1.18694 111.178M256 121.188L1.18694 121.188" stroke="white"/>
<path fill-rule="evenodd" clip-rule="evenodd" d="M222.105 0.999997L256 1L256 41.6674L253.759 41.6674L253.759 3.68427L222.105 3.68427L222.105 0.999997ZM222.105 121L256 121L256 80.3326L253.759 80.3326L253.759 118.316L222.105 118.316L222.105 121ZM33.8949 121L33.8949 118.316L2.24069 118.316L2.24069 80.3326L-1.90122e-06 80.3326L-2.87582e-06 121L33.8949 121ZM-9.74602e-07 41.6674L2.24069 41.6674L2.24069 3.68425L33.8949 3.68426L33.8949 0.999982L0 0.99998L-9.74602e-07 41.6674Z" fill="white"/>
<path d="M55.0196 61.24C52.8463 61.24 51.0729 60.56 49.6996 59.2C48.3396 57.84 47.6596 56.1067 47.6596 54C47.6596 51.9867 48.3596 50.28 49.7596 48.88C51.1596 47.4667 52.9063 46.76 54.9996 46.76C56.2129 46.76 57.2396 46.92 58.0796 47.24C58.9196 47.5467 59.7263 48.0267 60.4996 48.68L58.5596 51.02C57.9729 50.5267 57.4063 50.1667 56.8596 49.94C56.3129 49.7133 55.6596 49.6 54.8996 49.6C53.7796 49.6 52.8263 50.0333 52.0396 50.9C51.2663 51.7533 50.8796 52.7867 50.8796 54C50.8796 55.28 51.2729 56.34 52.0596 57.18C52.8596 58.02 53.8796 58.44 55.1196 58.44C56.2663 58.44 57.2329 58.16 58.0196 57.6V55.6H54.9196V52.94H60.9996V59.02C59.2529 60.5 57.2596 61.24 55.0196 61.24ZM64.9632 61V47H75.5232V49.74H68.0232V52.58H74.6232V55.32H68.0232V58.26H75.6232V61H64.9632ZM82.6216 61V49.84H78.3616V47H89.9616V49.84H85.7016V61H82.6216ZM100.326 61V47H103.406V58.2H110.386V61H100.326ZM113.849 61V47H116.929V61H113.849ZM121.428 61V47H124.268L130.828 55.62V47H133.868V61H131.248L124.468 52.1V61H121.428ZM138.229 61V47H141.309V53.12L146.989 47H150.709L145.009 52.94L150.969 61H147.269L142.929 55.04L141.309 56.72V61H138.229ZM159.634 61L165.634 46.9H168.474L174.474 61H171.254L169.974 57.86H164.054L162.774 61H159.634ZM165.154 55.14H168.874L167.014 50.6L165.154 55.14ZM177.635 61V47H180.475L187.035 55.62V47H190.075V61H187.455L180.675 52.1V61H177.635ZM194.436 61V47H199.896C202.083 47 203.869 47.6667 205.256 49C206.643 50.32 207.336 51.9867 207.336 54C207.336 56 206.636 57.6667 205.236 59C203.849 60.3333 202.069 61 199.896 61H194.436ZM197.516 58.22H199.896C201.163 58.22 202.183 57.8333 202.956 57.06C203.729 56.2733 204.116 55.2533 204.116 54C204.116 52.76 203.723 51.7467 202.936 50.96C202.163 50.1733 201.149 49.78 199.896 49.78H197.516V58.22ZM33.4177 81V67H36.4977V81H33.4177ZM40.9964 81V67H43.8364L50.3964 75.62V67H53.4364V81H50.8164L44.0364 72.1V81H40.9964ZM62.2572 81.1L56.5972 67H59.9972L63.6572 76.86L67.3172 67H70.6372L64.9772 81.1H62.2572ZM73.9372 81V67H77.0172V81H73.9372ZM84.7759 81V69.84H80.5159V67H92.1159V69.84H87.8559V81H84.7759ZM95.4847 81V67H106.045V69.74H98.5447V72.58H105.145V75.32H98.5447V78.26H106.145V81H95.4847ZM116.879 81V67H120.199L123.879 72.92L127.559 67H130.879V81H127.819V71.86L123.879 77.84H123.799L119.899 71.92V81H116.879ZM135.243 81V67H145.803V69.74H138.303V72.58H144.903V75.32H138.303V78.26H145.903V81H135.243ZM149.641 81V67H152.961L156.641 72.92L160.321 67H163.641V81H160.581V71.86L156.641 77.84H156.561L152.661 71.92V81H149.641ZM168.004 81V67H174.504C176.118 67 177.338 67.4133 178.164 68.24C178.804 68.88 179.124 69.6867 179.124 70.66C179.124 71.98 178.511 72.9867 177.284 73.68C178.151 74.0133 178.804 74.4533 179.244 75C179.684 75.5333 179.904 76.2533 179.904 77.16C179.904 78.4133 179.438 79.3667 178.504 80.02C177.571 80.6733 176.291 81 174.664 81H168.004ZM171.004 72.66H173.844C175.324 72.66 176.064 72.1533 176.064 71.14C176.064 70.6733 175.891 70.32 175.544 70.08C175.198 69.8267 174.698 69.7 174.044 69.7H171.004V72.66ZM171.004 78.3H174.664C176.118 78.3 176.844 77.78 176.844 76.74C176.844 75.7267 176.084 75.22 174.564 75.22H171.004V78.3ZM183.438 81V67H193.998V69.74H186.498V72.58H193.098V75.32H186.498V78.26H194.098V81H183.438ZM197.836 81V67H204.236C206.01 67 207.37 67.4733 208.316 68.42C209.116 69.22 209.516 70.3 209.516 71.66C209.516 73.8067 208.516 75.2533 206.516 76L209.936 81H206.336L203.296 76.52H200.916V81H197.836ZM200.916 73.8H204.036C204.783 73.8 205.363 73.62 205.776 73.26C206.19 72.8867 206.396 72.3933 206.396 71.78C206.396 71.1267 206.183 70.6333 205.756 70.3C205.33 69.9533 204.736 69.78 203.976 69.78H200.916V73.8ZM218.269 81.2C215.976 81.2 213.996 80.4533 212.329 78.96L214.149 76.78C215.523 77.9133 216.916 78.48 218.329 78.48C218.956 78.48 219.449 78.36 219.809 78.12C220.169 77.88 220.349 77.5467 220.349 77.12C220.349 76.72 220.163 76.4 219.789 76.16C219.416 75.9067 218.663 75.6333 217.529 75.34C216.729 75.14 216.083 74.9467 215.589 74.76C215.096 74.56 214.623 74.3 214.169 73.98C213.729 73.66 213.403 73.26 213.189 72.78C212.989 72.2867 212.889 71.7 212.889 71.02C212.889 69.7533 213.343 68.7333 214.249 67.96C215.169 67.1867 216.349 66.8 217.789 66.8C219.776 66.8 221.509 67.3933 222.989 68.58L221.389 70.9C220.069 69.98 218.856 69.52 217.749 69.52C217.176 69.52 216.729 69.64 216.409 69.88C216.103 70.1067 215.949 70.4067 215.949 70.78C215.949 71.2333 216.143 71.5733 216.529 71.8C216.916 72.0267 217.729 72.3 218.969 72.62C220.489 73.02 221.609 73.5333 222.329 74.16C223.049 74.7867 223.409 75.6867 223.409 76.86C223.409 78.22 222.936 79.2867 221.989 80.06C221.056 80.82 219.816 81.2 218.269 81.2Z" fill="white"/>
<defs>
<radialGradient id="paint0_radial_1670_3240" cx="0" cy="0" r="1" gradientUnits="userSpaceOnUse" gradientTransform="translate(372.096 0.0937942) rotate(102.316) scale(261.927 165.44)">
<stop stop-color="#CA2DFF"/>
<stop offset="1" stop-color="#033959" stop-opacity="0"/>
</radialGradient>
<radialGradient id="paint1_radial_1670_3240" cx="0" cy="0" r="1" gradientUnits="userSpaceOnUse" gradientTransform="translate(253.257 43.5443) rotate(73.4902) scale(221.585 183.492)">
<stop stop-color="#20C0FF"/>
<stop offset="0.743635" stop-color="#033959" stop-opacity="0"/>
</radialGradient>
<radialGradient id="paint2_radial_1670_3240" cx="0" cy="0" r="1" gradientUnits="userSpaceOnUse" gradientTransform="translate(307.09 269.967) rotate(-89.7077) scale(258.96 293.648)">
<stop stop-color="#00277A"/>
<stop offset="0.743635" stop-color="#033959" stop-opacity="0"/>
</radialGradient>
</defs>
</svg>
