<svg width="257" height="122" viewBox="0 0 257 122" fill="none" xmlns="http://www.w3.org/2000/svg">
<g opacity="0.3">
<rect x="255.899" width="120.655" height="255.899" transform="rotate(90 255.899 0)" fill="#140359"/>
<rect x="255.899" width="120.655" height="255.899" transform="rotate(90 255.899 0)" fill="url(#paint0_radial_1670_3225)"/>
<rect x="255.899" width="120.655" height="255.899" transform="rotate(90 255.899 0)" fill="url(#paint1_radial_1670_3225)"/>
<rect x="255.899" width="120.655" height="255.899" transform="rotate(90 255.899 0)" fill="url(#paint2_radial_1670_3225)"/>
</g>
<rect opacity="0.2" x="255.399" y="1.14844" width="119.331" height="254.899" transform="rotate(90 255.399 1.14844)" stroke="white"/>
<path opacity="0.05" d="M256 0.583984L256 121.093M239.012 0.583984L239.012 121.093M222.025 0.583983L222.025 121.093M205.037 0.583982L205.037 121.093M188.05 0.583981L188.05 121.093M171.062 0.58398L171.062 121.093M154.075 0.583979L154.075 121.093M137.087 0.583978L137.087 121.093M120.1 0.583978L120.1 121.093M103.112 0.583977L103.112 121.093M86.1246 0.583976L86.1246 121.093M69.1371 0.583975L69.1371 121.093M52.1496 0.583974L52.1496 121.093M35.162 0.583973L35.162 121.093M18.1745 0.583973L18.1745 121.093M1.18695 0.583972L1.18694 121.093" stroke="white"/>
<path opacity="0.05" d="M256 0.974616L1.18694 0.974597M256 10.9846L1.18694 10.9845M256 20.9945L1.18694 20.9945M256 31.0044L1.18694 31.0044M256 41.0144L1.18694 41.0144M256 51.0243L1.18694 51.0243M256 61.0343L1.18694 61.0343M256 71.0442L1.18694 71.0442M256 81.0542L1.18694 81.0541M256 91.0641L1.18694 91.0641M256 101.074L1.18694 101.074M256 111.084L1.18694 111.084M256 121.094L1.18694 121.094" stroke="white"/>
<path fill-rule="evenodd" clip-rule="evenodd" d="M222.105 0.999997L256 1L256 41.6674L253.759 41.6674L253.759 3.68427L222.105 3.68427L222.105 0.999997ZM222.105 121L256 121L256 80.3326L253.759 80.3326L253.759 118.316L222.105 118.316L222.105 121ZM33.8949 121L33.8949 118.316L2.24069 118.316L2.24069 80.3326L-1.90122e-06 80.3326L-2.87582e-06 121L33.8949 121ZM-9.74602e-07 41.6674L2.24069 41.6674L2.24069 3.68425L33.8949 3.68426L33.8949 0.999982L0 0.99998L-9.74602e-07 41.6674Z" fill="white"/>
<path d="M91.7459 75.24C89.6925 75.24 87.9792 74.5467 86.6059 73.16C85.2459 71.76 84.5659 70.04 84.5659 68C84.5659 65.9733 85.2525 64.26 86.6259 62.86C87.9992 61.46 89.7459 60.76 91.8659 60.76C93.0792 60.76 94.0992 60.96 94.9259 61.36C95.7525 61.7467 96.5392 62.3067 97.2859 63.04L95.4459 65.16C94.8459 64.6133 94.2792 64.22 93.7459 63.98C93.2259 63.7267 92.5925 63.6 91.8459 63.6C90.6725 63.6 89.6992 64.0267 88.9259 64.88C88.1659 65.72 87.7859 66.76 87.7859 68C87.7859 69.2267 88.1659 70.2667 88.9259 71.12C89.6992 71.9733 90.6725 72.4 91.8459 72.4C92.5925 72.4 93.2392 72.2667 93.7859 72C94.3325 71.7333 94.9125 71.32 95.5259 70.76L97.4859 72.86C96.7259 73.6733 95.8992 74.2733 95.0059 74.66C94.1259 75.0467 93.0392 75.24 91.7459 75.24ZM100.951 75V61H107.351C109.125 61 110.485 61.4733 111.431 62.42C112.231 63.22 112.631 64.3 112.631 65.66C112.631 67.8067 111.631 69.2533 109.631 70L113.051 75H109.451L106.411 70.52H104.031V75H100.951ZM104.031 67.8H107.151C107.898 67.8 108.478 67.62 108.891 67.26C109.305 66.8867 109.511 66.3933 109.511 65.78C109.511 65.1267 109.298 64.6333 108.871 64.3C108.445 63.9533 107.851 63.78 107.091 63.78H104.031V67.8ZM116.405 75V61H126.965V63.74H119.465V66.58H126.065V69.32H119.465V72.26H127.065V75H116.405ZM129.603 75L135.603 60.9H138.443L144.443 75H141.223L139.943 71.86H134.023L132.743 75H129.603ZM135.123 69.14H138.843L136.983 64.6L135.123 69.14ZM149.067 75V63.84H144.807V61H156.407V63.84H152.147V75H149.067ZM159.776 75V61H170.336V63.74H162.836V66.58H169.436V69.32H162.836V72.26H170.436V75H159.776ZM105.365 95.24C103.312 95.24 101.598 94.5467 100.225 93.16C98.865 91.76 98.185 90.04 98.185 88C98.185 85.9733 98.8717 84.26 100.245 82.86C101.618 81.46 103.365 80.76 105.485 80.76C106.698 80.76 107.718 80.96 108.545 81.36C109.372 81.7467 110.158 82.3067 110.905 83.04L109.065 85.16C108.465 84.6133 107.898 84.22 107.365 83.98C106.845 83.7267 106.212 83.6 105.465 83.6C104.292 83.6 103.318 84.0267 102.545 84.88C101.785 85.72 101.405 86.76 101.405 88C101.405 89.2267 101.785 90.2667 102.545 91.12C103.318 91.9733 104.292 92.4 105.465 92.4C106.212 92.4 106.858 92.2667 107.405 92C107.952 91.7333 108.532 91.32 109.145 90.76L111.105 92.86C110.345 93.6733 109.518 94.2733 108.625 94.66C107.745 95.0467 106.658 95.24 105.365 95.24ZM114.571 95V81H117.651V92.2H124.631V95H114.571ZM126.753 95L132.753 80.9H135.593L141.593 95H138.373L137.093 91.86H131.173L129.893 95H126.753ZM132.273 89.14H135.993L134.133 84.6L132.273 89.14ZM144.754 95V81H147.594L154.154 89.62V81H157.194V95H154.574L147.794 86.1V95H144.754Z" fill="white"/>
<path d="M127.712 15.0071C127.578 15.0251 127.353 15.1419 127.218 15.2767C127.03 15.4474 125.844 18.0618 122.978 24.5485C120.786 29.5169 118.953 33.6138 118.917 33.6587C118.881 33.7036 118.495 33.4521 118.054 33.1106C111.9 28.2501 106.968 24.3958 106.752 24.261C106.033 23.8208 105 24.3778 105 25.2134C105 25.5728 113.436 47.3329 113.679 47.5935C113.787 47.7103 114.029 47.845 114.218 47.8989C114.712 48.0337 141.288 48.0337 141.782 47.8989C141.971 47.845 142.213 47.7103 142.321 47.5935C142.564 47.3329 151 25.5638 151 25.2044C151 24.3778 149.967 23.8298 149.248 24.261C149.104 24.3599 146.292 26.4802 143.013 28.9868C137.191 33.4341 137.038 33.5419 136.93 33.3353C136.877 33.2185 135.098 29.2294 132.995 24.4677C130.884 19.706 129.105 15.6989 129.033 15.5642C128.818 15.1419 128.296 14.9263 127.712 15.0071ZM131.549 26.9833C133.48 31.3317 135.062 34.9255 135.08 34.9614C135.098 35.0153 128.395 40.1993 127.865 40.5317C127.668 40.6575 127.506 40.5407 124.307 38.0251C122.457 36.5786 120.911 35.3657 120.866 35.3208C120.795 35.2579 127.901 19.0681 128 19.0681C128.027 19.0681 129.626 22.6259 131.549 26.9833ZM147.11 29.0587C147.047 29.2204 145.762 32.5356 144.253 36.4259C142.752 40.3161 141.504 43.5056 141.468 43.5056C141.387 43.5056 138.045 35.8868 138.08 35.779C138.116 35.6712 147.038 28.7981 147.164 28.7802C147.2 28.7712 147.173 28.906 147.11 29.0587ZM113.643 32.6075L117.92 35.9767L117.47 36.9739C117.228 37.531 116.473 39.22 115.808 40.7384C115.134 42.2657 114.559 43.5056 114.532 43.5056C114.488 43.5056 108.953 29.2833 108.872 28.9688C108.854 28.87 108.917 28.897 109.097 29.0407C109.241 29.1485 111.28 30.7567 113.643 32.6075ZM137.955 41.4481C138.952 43.7122 139.77 45.581 139.77 45.6079C139.77 45.6349 138.476 45.6618 136.895 45.6618H134.02L131.809 43.9278L129.608 42.2028L129.932 41.9333C131.001 41.0438 136.05 37.2524 136.095 37.2974C136.122 37.3243 136.966 39.1931 137.955 41.4481ZM123.445 40.3161C124.703 41.3044 125.718 42.1399 125.7 42.1759C125.673 42.2208 123.786 43.6673 121.594 45.3294L121.154 45.6618H118.692C117.336 45.6618 116.23 45.6349 116.23 45.6079C116.23 45.554 119.51 38.1239 119.707 37.7286L119.833 37.486L120.498 37.9981C120.857 38.2856 122.187 39.3278 123.445 40.3161ZM128.88 44.5927C129.509 45.0868 130.039 45.536 130.048 45.581C130.066 45.6259 129.078 45.6618 127.587 45.6618C125.413 45.6618 125.107 45.6438 125.215 45.536C125.439 45.3114 127.596 43.6942 127.668 43.6853C127.704 43.6853 128.243 44.0896 128.88 44.5927Z" fill="white"/>
<defs>
<radialGradient id="paint0_radial_1670_3225" cx="0" cy="0" r="1" gradientUnits="userSpaceOnUse" gradientTransform="translate(372.096) rotate(102.316) scale(261.927 165.44)">
<stop stop-color="#CA2DFF"/>
<stop offset="1" stop-color="#033959" stop-opacity="0"/>
</radialGradient>
<radialGradient id="paint1_radial_1670_3225" cx="0" cy="0" r="1" gradientUnits="userSpaceOnUse" gradientTransform="translate(253.257 43.4505) rotate(73.4902) scale(221.585 183.492)">
<stop stop-color="#20C0FF"/>
<stop offset="0.743635" stop-color="#033959" stop-opacity="0"/>
</radialGradient>
<radialGradient id="paint2_radial_1670_3225" cx="0" cy="0" r="1" gradientUnits="userSpaceOnUse" gradientTransform="translate(307.09 269.874) rotate(-89.7077) scale(258.96 293.648)">
<stop stop-color="#00277A"/>
<stop offset="0.743635" stop-color="#033959" stop-opacity="0"/>
</radialGradient>
</defs>
</svg>
