<svg width="257" height="122" viewBox="0 0 257 122" fill="none" xmlns="http://www.w3.org/2000/svg">
<g opacity="0.3">
<rect x="255.899" y="0.1875" width="120.655" height="255.899" transform="rotate(90 255.899 0.1875)" fill="#140359"/>
<rect x="255.899" y="0.1875" width="120.655" height="255.899" transform="rotate(90 255.899 0.1875)" fill="url(#paint0_radial_1670_3249)"/>
<rect x="255.899" y="0.1875" width="120.655" height="255.899" transform="rotate(90 255.899 0.1875)" fill="url(#paint1_radial_1670_3249)"/>
<rect x="255.899" y="0.1875" width="120.655" height="255.899" transform="rotate(90 255.899 0.1875)" fill="url(#paint2_radial_1670_3249)"/>
</g>
<rect opacity="0.2" x="255.399" y="1.33594" width="119.331" height="254.899" transform="rotate(90 255.399 1.33594)" stroke="white"/>
<path opacity="0.05" d="M256 0.771484L256 121.281M239.012 0.771484L239.012 121.281M222.025 0.771483L222.025 121.281M205.037 0.771482L205.037 121.281M188.05 0.771481L188.05 121.281M171.062 0.77148L171.062 121.281M154.075 0.771479L154.075 121.281M137.087 0.771478L137.087 121.281M120.1 0.771478L120.1 121.281M103.112 0.771477L103.112 121.281M86.1246 0.771476L86.1246 121.281M69.1371 0.771475L69.1371 121.281M52.1496 0.771474L52.1496 121.281M35.162 0.771473L35.162 121.281M18.1745 0.771473L18.1745 121.281M1.18695 0.771472L1.18694 121.281" stroke="white"/>
<path opacity="0.05" d="M256 1.16212L1.18694 1.1621M256 11.1721L1.18694 11.172M256 21.182L1.18694 21.182M256 31.1919L1.18694 31.1919M256 41.2019L1.18694 41.2019M256 51.2118L1.18694 51.2118M256 61.2218L1.18694 61.2218M256 71.2317L1.18694 71.2317M256 81.2417L1.18694 81.2416M256 91.2516L1.18694 91.2516M256 101.262L1.18694 101.262M256 111.272L1.18694 111.271M256 121.281L1.18694 121.281" stroke="white"/>
<path fill-rule="evenodd" clip-rule="evenodd" d="M222.105 0.999997L256 1L256 41.6674L253.759 41.6674L253.759 3.68427L222.105 3.68427L222.105 0.999997ZM222.105 121L256 121L256 80.3326L253.759 80.3326L253.759 118.316L222.105 118.316L222.105 121ZM33.8949 121L33.8949 118.316L2.24069 118.316L2.24069 80.3326L-1.90122e-06 80.3326L-2.87582e-06 121L33.8949 121ZM-9.74602e-07 41.6674L2.24069 41.6674L2.24069 3.68425L33.8949 3.68426L33.8949 0.999982L0 0.99998L-9.74602e-07 41.6674Z" fill="white"/>
<path d="M62.2191 59V45H67.6791C69.8657 45 71.6524 45.6667 73.0391 47C74.4257 48.32 75.1191 49.9867 75.1191 52C75.1191 54 74.4191 55.6667 73.0191 57C71.6324 58.3333 69.8524 59 67.6791 59H62.2191ZM65.2991 56.22H67.6791C68.9457 56.22 69.9657 55.8333 70.7391 55.06C71.5124 54.2733 71.8991 53.2533 71.8991 52C71.8991 50.76 71.5057 49.7467 70.7191 48.96C69.9457 48.1733 68.9324 47.78 67.6791 47.78H65.2991V56.22ZM79.0036 59V45H82.0836V59H79.0036ZM91.5623 59.2C89.269 59.2 87.289 58.4533 85.6223 56.96L87.4423 54.78C88.8157 55.9133 90.209 56.48 91.6223 56.48C92.249 56.48 92.7423 56.36 93.1023 56.12C93.4623 55.88 93.6423 55.5467 93.6423 55.12C93.6423 54.72 93.4557 54.4 93.0823 54.16C92.709 53.9067 91.9557 53.6333 90.8223 53.34C90.0223 53.14 89.3757 52.9467 88.8823 52.76C88.389 52.56 87.9157 52.3 87.4623 51.98C87.0223 51.66 86.6957 51.26 86.4823 50.78C86.2823 50.2867 86.1823 49.7 86.1823 49.02C86.1823 47.7533 86.6357 46.7333 87.5423 45.96C88.4623 45.1867 89.6423 44.8 91.0823 44.8C93.069 44.8 94.8023 45.3933 96.2823 46.58L94.6823 48.9C93.3623 47.98 92.149 47.52 91.0423 47.52C90.469 47.52 90.0223 47.64 89.7023 47.88C89.3957 48.1067 89.2423 48.4067 89.2423 48.78C89.2423 49.2333 89.4357 49.5733 89.8223 49.8C90.209 50.0267 91.0223 50.3 92.2623 50.62C93.7823 51.02 94.9023 51.5333 95.6223 52.16C96.3423 52.7867 96.7023 53.6867 96.7023 54.86C96.7023 56.22 96.229 57.2867 95.2823 58.06C94.349 58.82 93.109 59.2 91.5623 59.2ZM103.342 59V47.84H99.0823V45H110.682V47.84H106.422V59H103.342ZM114.051 59V45H120.451C122.224 45 123.584 45.4733 124.531 46.42C125.331 47.22 125.731 48.3 125.731 49.66C125.731 51.8067 124.731 53.2533 122.731 54L126.151 59H122.551L119.511 54.52H117.131V59H114.051ZM117.131 51.8H120.251C120.998 51.8 121.578 51.62 121.991 51.26C122.404 50.8867 122.611 50.3933 122.611 49.78C122.611 49.1267 122.398 48.6333 121.971 48.3C121.544 47.9533 120.951 47.78 120.191 47.78H117.131V51.8ZM129.644 59V45H132.724V59H129.644ZM137.223 59V45H143.723C145.336 45 146.556 45.4133 147.383 46.24C148.023 46.88 148.343 47.6867 148.343 48.66C148.343 49.98 147.73 50.9867 146.503 51.68C147.37 52.0133 148.023 52.4533 148.463 53C148.903 53.5333 149.123 54.2533 149.123 55.16C149.123 56.4133 148.656 57.3667 147.723 58.02C146.79 58.6733 145.51 59 143.883 59H137.223ZM140.223 50.66H143.063C144.543 50.66 145.283 50.1533 145.283 49.14C145.283 48.6733 145.11 48.32 144.763 48.08C144.416 47.8267 143.916 47.7 143.263 47.7H140.223V50.66ZM140.223 56.3H143.883C145.336 56.3 146.063 55.78 146.063 54.74C146.063 53.7267 145.303 53.22 143.783 53.22H140.223V56.3ZM158.497 59.22C156.59 59.22 155.103 58.6933 154.037 57.64C152.97 56.5733 152.437 55.0267 152.437 53V45H155.517V52.92C155.517 54.04 155.777 54.9 156.297 55.5C156.83 56.0867 157.577 56.38 158.537 56.38C159.497 56.38 160.237 56.0933 160.757 55.52C161.29 54.9467 161.557 54.1133 161.557 53.02V45H164.637V52.9C164.637 54.98 164.09 56.5533 162.997 57.62C161.917 58.6867 160.417 59.22 158.497 59.22ZM172.034 59V47.84H167.774V45H179.374V47.84H175.114V59H172.034ZM182.743 59V45H193.303V47.74H185.803V50.58H192.403V53.32H185.803V56.26H193.403V59H182.743ZM92.6702 79V65H99.0702C100.844 65 102.204 65.4733 103.15 66.42C103.95 67.22 104.35 68.3 104.35 69.66C104.35 71.8067 103.35 73.2533 101.35 74L104.77 79H101.17L98.1302 74.52H95.7502V79H92.6702ZM95.7502 71.8H98.8702C99.6169 71.8 100.197 71.62 100.61 71.26C101.024 70.8867 101.23 70.3933 101.23 69.78C101.23 69.1267 101.017 68.6333 100.59 68.3C100.164 67.9533 99.5702 67.78 98.8102 67.78H95.7502V71.8ZM120.243 77.14C118.83 78.54 117.057 79.24 114.923 79.24C112.79 79.24 111.017 78.54 109.603 77.14C108.203 75.74 107.503 74.0267 107.503 72C107.503 69.9867 108.21 68.28 109.623 66.88C111.05 65.4667 112.83 64.76 114.963 64.76C117.097 64.76 118.863 65.46 120.263 66.86C121.677 68.26 122.383 69.9733 122.383 72C122.383 74.0133 121.67 75.7267 120.243 77.14ZM111.923 75.12C112.723 75.9733 113.737 76.4 114.963 76.4C116.19 76.4 117.197 75.98 117.983 75.14C118.77 74.2867 119.163 73.24 119.163 72C119.163 70.7733 118.763 69.7333 117.963 68.88C117.163 68.0267 116.15 67.6 114.923 67.6C113.697 67.6 112.69 68.0267 111.903 68.88C111.117 69.72 110.723 70.76 110.723 72C110.723 73.2267 111.123 74.2667 111.923 75.12ZM126.116 79V65H129.196V76.2H136.176V79H126.116ZM139.498 79V65H150.058V67.74H142.558V70.58H149.158V73.32H142.558V76.26H150.158V79H139.498ZM158.877 79.2C156.583 79.2 154.603 78.4533 152.937 76.96L154.757 74.78C156.13 75.9133 157.523 76.48 158.937 76.48C159.563 76.48 160.057 76.36 160.417 76.12C160.777 75.88 160.957 75.5467 160.957 75.12C160.957 74.72 160.77 74.4 160.397 74.16C160.023 73.9067 159.27 73.6333 158.137 73.34C157.337 73.14 156.69 72.9467 156.197 72.76C155.703 72.56 155.23 72.3 154.777 71.98C154.337 71.66 154.01 71.26 153.797 70.78C153.597 70.2867 153.497 69.7 153.497 69.02C153.497 67.7533 153.95 66.7333 154.857 65.96C155.777 65.1867 156.957 64.8 158.397 64.8C160.383 64.8 162.117 65.3933 163.597 66.58L161.997 68.9C160.677 67.98 159.463 67.52 158.357 67.52C157.783 67.52 157.337 67.64 157.017 67.88C156.71 68.1067 156.557 68.4067 156.557 68.78C156.557 69.2333 156.75 69.5733 157.137 69.8C157.523 70.0267 158.337 70.3 159.577 70.62C161.097 71.02 162.217 71.5333 162.937 72.16C163.657 72.7867 164.017 73.6867 164.017 74.86C164.017 76.22 163.543 77.2867 162.597 78.06C161.663 78.82 160.423 79.2 158.877 79.2Z" fill="white"/>
<defs>
<radialGradient id="paint0_radial_1670_3249" cx="0" cy="0" r="1" gradientUnits="userSpaceOnUse" gradientTransform="translate(372.096 0.187544) rotate(102.316) scale(261.927 165.44)">
<stop stop-color="#CA2DFF"/>
<stop offset="1" stop-color="#033959" stop-opacity="0"/>
</radialGradient>
<radialGradient id="paint1_radial_1670_3249" cx="0" cy="0" r="1" gradientUnits="userSpaceOnUse" gradientTransform="translate(253.257 43.638) rotate(73.4902) scale(221.585 183.492)">
<stop stop-color="#20C0FF"/>
<stop offset="0.743635" stop-color="#033959" stop-opacity="0"/>
</radialGradient>
<radialGradient id="paint2_radial_1670_3249" cx="0" cy="0" r="1" gradientUnits="userSpaceOnUse" gradientTransform="translate(307.09 270.061) rotate(-89.7077) scale(258.96 293.648)">
<stop stop-color="#00277A"/>
<stop offset="0.743635" stop-color="#033959" stop-opacity="0"/>
</radialGradient>
</defs>
</svg>
