<svg width="257" height="122" viewBox="0 0 257 122" fill="none" xmlns="http://www.w3.org/2000/svg">
<g opacity="0.3">
<rect x="255.899" y="0.282227" width="120.655" height="255.899" transform="rotate(90 255.899 0.282227)" fill="#140359"/>
<rect x="255.899" y="0.282227" width="120.655" height="255.899" transform="rotate(90 255.899 0.282227)" fill="url(#paint0_radial_1670_3258)"/>
<rect x="255.899" y="0.282227" width="120.655" height="255.899" transform="rotate(90 255.899 0.282227)" fill="url(#paint1_radial_1670_3258)"/>
<rect x="255.899" y="0.282227" width="120.655" height="255.899" transform="rotate(90 255.899 0.282227)" fill="url(#paint2_radial_1670_3258)"/>
</g>
<rect opacity="0.2" x="255.399" y="1.43066" width="119.331" height="254.899" transform="rotate(90 255.399 1.43066)" stroke="white"/>
<path opacity="0.05" d="M256 0.866211L256 121.376M239.012 0.86621L239.012 121.376M222.025 0.866209L222.025 121.376M205.037 0.866208L205.037 121.376M188.05 0.866208L188.05 121.376M171.062 0.866207L171.062 121.376M154.075 0.866206L154.075 121.376M137.087 0.866205L137.087 121.376M120.1 0.866204L120.1 121.376M103.112 0.866203L103.112 121.376M86.1246 0.866203L86.1246 121.376M69.1371 0.866202L69.1371 121.376M52.1496 0.866201L52.1496 121.376M35.162 0.8662L35.162 121.376M18.1745 0.866199L18.1745 121.376M1.18695 0.866198L1.18694 121.376" stroke="white"/>
<path opacity="0.05" d="M256 1.25684L1.18694 1.25682M256 11.2668L1.18694 11.2668M256 21.2767L1.18694 21.2767M256 31.2867L1.18694 31.2867M256 41.2966L1.18694 41.2966M256 51.3066L1.18694 51.3065M256 61.3165L1.18694 61.3165M256 71.3264L1.18694 71.3264M256 81.3364L1.18694 81.3364M256 91.3463L1.18694 91.3463M256 101.356L1.18694 101.356M256 111.366L1.18694 111.366M256 121.376L1.18694 121.376" stroke="white"/>
<path fill-rule="evenodd" clip-rule="evenodd" d="M222.105 0.999997L256 1L256 41.6674L253.759 41.6674L253.759 3.68427L222.105 3.68427L222.105 0.999997ZM222.105 121L256 121L256 80.3326L253.759 80.3326L253.759 118.316L222.105 118.316L222.105 121ZM33.8949 121L33.8949 118.316L2.24069 118.316L2.24069 80.3326L-1.90122e-06 80.3326L-2.87582e-06 121L33.8949 121ZM-9.74602e-07 41.6674L2.24069 41.6674L2.24069 3.68425L33.8949 3.68426L33.8949 0.999982L0 0.99998L-9.74602e-07 41.6674Z" fill="white"/>
<path d="M69.088 69.24C66.9146 69.24 65.1413 68.56 63.768 67.2C62.408 65.84 61.728 64.1067 61.728 62C61.728 59.9867 62.428 58.28 63.828 56.88C65.228 55.4667 66.9746 54.76 69.068 54.76C70.2813 54.76 71.308 54.92 72.148 55.24C72.988 55.5467 73.7946 56.0267 74.568 56.68L72.628 59.02C72.0413 58.5267 71.4746 58.1667 70.928 57.94C70.3813 57.7133 69.728 57.6 68.968 57.6C67.848 57.6 66.8946 58.0333 66.108 58.9C65.3346 59.7533 64.948 60.7867 64.948 62C64.948 63.28 65.3413 64.34 66.128 65.18C66.928 66.02 67.948 66.44 69.188 66.44C70.3346 66.44 71.3013 66.16 72.088 65.6V63.6H68.988V60.94H75.068V67.02C73.3213 68.5 71.328 69.24 69.088 69.24ZM79.0316 69V55H89.5916V57.74H82.0916V60.58H88.6916V63.32H82.0916V66.26H89.6916V69H79.0316ZM96.69 69V57.84H92.43V55H104.03V57.84H99.77V69H96.69ZM114.395 69V55H120.115C121.768 55 123.075 55.4467 124.035 56.34C124.995 57.2333 125.475 58.4133 125.475 59.88C125.475 61.44 124.942 62.6533 123.875 63.52C122.808 64.3733 121.455 64.8 119.815 64.8H117.475V69H114.395ZM117.475 62.06H119.915C120.675 62.06 121.268 61.86 121.695 61.46C122.135 61.06 122.355 60.54 122.355 59.9C122.355 59.22 122.135 58.7 121.695 58.34C121.255 57.9667 120.642 57.78 119.855 57.78H117.475V62.06ZM128.754 69V55H135.154C136.928 55 138.288 55.4733 139.234 56.42C140.034 57.22 140.434 58.3 140.434 59.66C140.434 61.8067 139.434 63.2533 137.434 64L140.854 69H137.254L134.214 64.52H131.834V69H128.754ZM131.834 61.8H134.954C135.701 61.8 136.281 61.62 136.694 61.26C137.108 60.8867 137.314 60.3933 137.314 59.78C137.314 59.1267 137.101 58.6333 136.674 58.3C136.248 57.9533 135.654 57.78 134.894 57.78H131.834V61.8ZM156.327 67.14C154.914 68.54 153.141 69.24 151.007 69.24C148.874 69.24 147.101 68.54 145.687 67.14C144.287 65.74 143.587 64.0267 143.587 62C143.587 59.9867 144.294 58.28 145.707 56.88C147.134 55.4667 148.914 54.76 151.047 54.76C153.181 54.76 154.947 55.46 156.347 56.86C157.761 58.26 158.467 59.9733 158.467 62C158.467 64.0133 157.754 65.7267 156.327 67.14ZM148.007 65.12C148.807 65.9733 149.821 66.4 151.047 66.4C152.274 66.4 153.281 65.98 154.067 65.14C154.854 64.2867 155.247 63.24 155.247 62C155.247 60.7733 154.847 59.7333 154.047 58.88C153.247 58.0267 152.234 57.6 151.007 57.6C149.781 57.6 148.774 58.0267 147.987 58.88C147.201 59.72 146.807 60.76 146.807 62C146.807 63.2267 147.207 64.2667 148.007 65.12ZM162.2 69V55H172.86V57.8H165.28V60.78H171.96V63.58H165.28V69H162.2ZM176.465 69V55H179.545V69H176.465ZM187.303 69V57.84H183.043V55H194.643V57.84H190.383V69H187.303Z" fill="white"/>
<defs>
<radialGradient id="paint0_radial_1670_3258" cx="0" cy="0" r="1" gradientUnits="userSpaceOnUse" gradientTransform="translate(372.096 0.282271) rotate(102.316) scale(261.927 165.44)">
<stop stop-color="#CA2DFF"/>
<stop offset="1" stop-color="#033959" stop-opacity="0"/>
</radialGradient>
<radialGradient id="paint1_radial_1670_3258" cx="0" cy="0" r="1" gradientUnits="userSpaceOnUse" gradientTransform="translate(253.257 43.7327) rotate(73.4902) scale(221.585 183.492)">
<stop stop-color="#20C0FF"/>
<stop offset="0.743635" stop-color="#033959" stop-opacity="0"/>
</radialGradient>
<radialGradient id="paint2_radial_1670_3258" cx="0" cy="0" r="1" gradientUnits="userSpaceOnUse" gradientTransform="translate(307.09 270.156) rotate(-89.7077) scale(258.96 293.648)">
<stop stop-color="#00277A"/>
<stop offset="0.743635" stop-color="#033959" stop-opacity="0"/>
</radialGradient>
</defs>
</svg>
