<svg width="10" height="123" viewBox="0 0 10 123" fill="none" xmlns="http://www.w3.org/2000/svg">
<path d="M5 0.511719C2.25371 0.511719 0 2.81649 0 5.625C0 8.43351 2.25371 10.7383 5 10.7383C7.74629 10.7383 10 8.43351 10 5.625C10 2.81649 7.74629 0.511719 5 0.511719ZM4.3949 7.95074L2.20535 5.71161L3.03391 4.86428L4.43324 6.29532L7.24248 3.68371L8.03098 4.57025L4.3949 7.95074Z" fill="#87FF30"/>
<path d="M5 27.8359C2.25371 27.8359 0 29.9105 0 32.4385C0 34.9665 2.25371 37.041 5 37.041C7.74629 37.041 10 34.9665 10 32.4385C10 29.9105 7.74629 27.8359 5 27.8359ZM4.3949 34.5319L2.20535 32.5164L3.03391 31.7537L4.43324 33.0418L7.24248 30.6911L8.03098 31.4891L4.3949 34.5319Z" fill="#87FF30"/>
<path d="M5 55.1582C2.25371 55.1582 0 57.4625 0 60.2705C0 63.0785 2.25371 65.3828 5 65.3828C7.74629 65.3828 10 63.0785 10 60.2705C10 57.4625 7.74629 55.1582 5 55.1582ZM4.3949 62.5958L2.20535 60.3571L3.03391 59.5099L4.43324 60.9407L7.24248 58.3296L8.03098 59.216L4.3949 62.5958Z" fill="#87FF30"/>
<path d="M5 83.4922C2.25371 83.4922 0 85.797 0 88.6055C0 91.414 2.25371 93.7188 5 93.7188C7.74629 93.7188 10 91.414 10 88.6055C10 85.797 7.74629 83.4922 5 83.4922ZM4.3949 90.9312L2.20535 88.6921L3.03391 87.8447L4.43324 89.2758L7.24248 86.6642L8.03098 87.5507L4.3949 90.9312Z" fill="#87FF30"/>
<path d="M5 111.828C2.25371 111.828 0 114.133 0 116.941C0 119.75 2.25371 122.055 5 122.055C7.74629 122.055 10 119.75 10 116.941C10 114.133 7.74629 111.828 5 111.828ZM4.3949 119.267L2.20535 117.028L3.03391 116.181L4.43324 117.612L7.24248 115L8.03098 115.887L4.3949 119.267Z" fill="#87FF30"/>
</svg>
