<svg width="25" height="19" viewBox="0 0 25 19" fill="none" xmlns="http://www.w3.org/2000/svg">
<path d="M20.6898 1.51643C19.1322 0.814571 17.4619 0.297446 15.7155 0.0012428C15.6837 -0.00447595 15.6519 0.00982091 15.6356 0.0383678C15.4207 0.413602 15.1828 0.903071 15.0162 1.28782C13.1378 1.01163 11.2691 1.01163 9.42926 1.28782C9.26259 0.89454 9.01602 0.413602 8.80023 0.0383678C8.78385 0.0107584 8.75207 -0.00353845 8.72028 0.0012428C6.97487 0.296461 5.3046 0.813586 3.74601 1.51643C3.7325 1.52215 3.72095 1.53166 3.71326 1.54404C0.545113 6.1924 -0.322816 10.7265 0.102939 15.2044C0.104848 15.2263 0.117401 15.2472 0.134727 15.2606C2.22498 16.7681 4.2498 17.6833 6.23696 18.2899C6.26875 18.2995 6.30245 18.2881 6.32268 18.2623C6.79273 17.6319 7.21176 16.9672 7.57102 16.2681C7.59222 16.2272 7.57198 16.1786 7.52864 16.1624C6.86399 15.9148 6.23114 15.6129 5.62234 15.2701C5.57418 15.2425 5.57031 15.1749 5.61465 15.1425C5.74276 15.0482 5.87092 14.9501 5.99325 14.8511C6.0154 14.833 6.04623 14.8292 6.07224 14.8406C10.0717 16.6339 14.4015 16.6339 18.3537 14.8406C18.3798 14.8282 18.4106 14.832 18.4337 14.8501C18.5561 14.9491 18.6842 15.0482 18.8132 15.1424C18.8575 15.1748 18.8546 15.2425 18.8065 15.2701C18.1977 15.6196 17.5649 15.9148 16.8993 16.1614C16.8559 16.1776 16.8366 16.2272 16.8579 16.2681C17.2249 16.9661 17.6439 17.6309 18.1053 18.2613C18.1245 18.288 18.1592 18.2995 18.191 18.2899C20.1878 17.6833 22.2126 16.7681 24.3029 15.2605C24.3212 15.2472 24.3327 15.2272 24.3347 15.2053C24.8442 10.0284 23.4812 5.53141 20.7215 1.54493C20.7148 1.53166 20.7032 1.52215 20.6898 1.51643ZM8.16837 12.4778C6.96428 12.4778 5.97211 11.3922 5.97211 10.0589C5.97211 8.72557 6.94499 7.63994 8.16837 7.63994C9.40129 7.63994 10.3839 8.73513 10.3646 10.0589C10.3646 11.3922 9.39165 12.4778 8.16837 12.4778ZM16.2886 12.4778C15.0846 12.4778 14.0924 11.3922 14.0924 10.0589C14.0924 8.72557 15.0653 7.63994 16.2886 7.63994C17.5216 7.63994 18.5041 8.73513 18.4849 10.0589C18.4849 11.3922 17.5216 12.4778 16.2886 12.4778Z" fill="white"/>
</svg>
