<svg width="20" height="21" viewBox="0 0 20 21" fill="none" xmlns="http://www.w3.org/2000/svg">
<path d="M4.60111 3.62891C4.14799 3.62891 3.7793 4.00068 3.7793 4.45769C3.7793 4.91469 4.14795 5.28646 4.60111 5.28646C5.05427 5.28646 5.42292 4.91469 5.42292 4.45769C5.42292 4.00068 5.05423 3.62891 4.60111 3.62891Z" fill="white"/>
<path d="M3.7793 8.96973H5.42288V16.7976H3.7793V8.96973Z" fill="white"/>
<path d="M17.847 0.212891H2.29768C1.12011 0.212891 0.162109 1.17957 0.162109 2.36781V18.0579C0.162109 19.2462 1.12011 20.2129 2.29768 20.2129H17.847C19.0246 20.2129 19.9826 19.2462 19.9826 18.0579V2.36781C19.9826 1.17957 19.0246 0.212891 17.847 0.212891ZM6.58448 17.3832C6.58448 17.7068 6.32449 17.9691 6.0038 17.9691H3.19886C2.87817 17.9691 2.61818 17.7068 2.61818 17.3832V8.3834C2.61818 8.0598 2.87817 7.79746 3.19886 7.79746H6.0038C6.32449 7.79746 6.58448 8.0598 6.58448 8.3834V17.3832ZM4.60135 6.45891C3.50785 6.45891 2.61818 5.56121 2.61818 4.45777C2.61818 3.35434 3.50782 2.45664 4.60135 2.45664C5.69488 2.45664 6.58451 3.35434 6.58451 4.45777C6.58451 5.56121 5.69484 6.45891 4.60135 6.45891ZM17.7229 17.3832C17.7229 17.7068 17.4629 17.9691 17.1422 17.9691H14.3187C13.9981 17.9691 13.7381 17.7068 13.7381 17.3832V12.1505C13.7381 11.6239 13.3135 11.1955 12.7917 11.1955C12.2699 11.1955 11.8454 11.6239 11.8454 12.1505V17.3832C11.8454 17.7068 11.5854 17.9691 11.2647 17.9691H8.45975C8.13906 17.9691 7.87908 17.7068 7.87908 17.3832V8.3834C7.87908 8.0598 8.13906 7.79746 8.45975 7.79746H11.2647C11.527 7.79746 11.7486 7.97289 11.8207 8.21383C12.3752 7.94176 12.9877 7.79746 13.6153 7.79746C15.8802 7.79746 17.7229 9.6568 17.7229 11.9422V17.3832H17.7229Z" fill="white"/>
<path d="M13.6159 8.96973C12.8904 8.96973 12.1932 9.23859 11.6525 9.72676C11.4818 9.88086 11.2373 9.91949 11.0283 9.82504C10.8192 9.73074 10.6846 9.52125 10.6846 9.29016V8.96977H9.04102V16.7977H10.6846V12.1509C10.6846 10.9782 11.6301 10.024 12.7923 10.024C13.9545 10.024 14.9 10.9782 14.9 12.1509V16.7976H16.5621V11.9426C16.5622 10.3034 15.2405 8.96973 13.6159 8.96973Z" fill="white"/>
</svg>
