<svg width="19" height="19" viewBox="0 0 19 19" fill="none" xmlns="http://www.w3.org/2000/svg">
<path d="M6.33017 16.8811C6.33017 17.4313 5.91771 17.6586 5.46092 17.4313L0.530417 14.9669C0.381583 14.8964 0.2565 14.7785 0.154375 14.613C0.05225 14.4476 0 14.2829 0 14.1206V2.06588C0 1.61622 0.269958 1.41276 0.880333 1.71676L6.2985 4.42426C6.37687 4.50263 6.31908 3.9643 6.33017 16.8811ZM7.00862 5.54447L12.6706 14.7025L7.00862 11.8897V5.54447ZM19 5.73526V16.8811C19 17.0577 18.9509 17.2002 18.8512 17.3094C18.7522 17.4187 18.6176 17.4733 18.4482 17.4733C18.2788 17.4733 18.1125 17.4274 17.9502 17.3356L13.2747 15.0088L19 5.73526ZM18.9683 4.46622C18.9683 4.48759 18.0619 5.96643 16.249 8.90193C14.436 11.8374 13.3736 13.5569 13.0625 14.0573L8.92762 7.35263L12.3627 1.78009C12.5495 1.47293 12.9327 1.41909 13.19 1.54734L18.9264 4.40288C18.9541 4.41634 18.9683 4.43772 18.9683 4.46622Z" fill="white"/>
</svg>
